<?xml version="1.0" encoding="UTF-8" standalone="no"?>
<svg width="400px" height="300px" viewBox="0 0 400 300" version="1.1" xmlns="http://www.w3.org/2000/svg" xmlns:xlink="http://www.w3.org/1999/xlink">
    <g id="Luggage-Thumbnail" stroke="none" stroke-width="1" fill="none" fill-rule="evenodd">
        <rect fill="#f5f5f5" x="0" y="0" width="400" height="300"></rect>
        <g id="Luggage" transform="translate(100, 40)">
            <!-- Luggage Body -->
            <rect id="Body" fill="#2ecc71" x="40" y="60" width="120" height="160" rx="10"></rect>
            
            <!-- Luggage Details -->
            <rect id="TopSection" fill="#27ae60" x="40" y="60" width="120" height="40"></rect>
            <rect id="BottomSection" fill="#27ae60" x="40" y="180" width="120" height="40"></rect>
            
            <!-- Luggage Handle -->
            <rect id="HandleBase" fill="#2c3e50" x="90" y="30" width="20" height="10" rx="5"></rect>
            <rect id="HandleStem" fill="#2c3e50" x="95" y="10" width="10" height="20" rx="2"></rect>
            <rect id="HandleTop" fill="#2c3e50" x="75" y="5" width="50" height="10" rx="5"></rect>
            
            <!-- Luggage Wheels -->
            <circle id="Wheel1" fill="#34495e" cx="55" cy="210" r="10"></circle>
            <circle id="Wheel2" fill="#34495e" cx="145" cy="210" r="10"></circle>
            
            <!-- Luggage Zippers -->
            <rect id="Zipper1" fill="#34495e" x="50" y="110" width="100" height="2" rx="1"></rect>
            <rect id="Zipper2" fill="#34495e" x="50" y="150" width="100" height="2" rx="1"></rect>
            
            <!-- Eco Logo -->
            <circle id="EcoCircle" fill="#ecf0f1" cx="100" cy="135" r="20"></circle>
            <path id="LeafShape" d="M100,120 C110,120 115,130 110,140 C105,150 95,145 90,135 C85,125 90,120 100,120 Z" fill="#27ae60"></path>
            
            <!-- Eco Text -->
            <text id="Eco" font-family="Arial-BoldMT, Arial" font-size="10" font-weight="bold" fill="#2c3e50">
                <tspan x="90" y="175">ECO</tspan>
            </text>
        </g>
    </g>
</svg>