<?xml version="1.0" encoding="UTF-8" standalone="no"?>
<svg width="80px" height="80px" viewBox="0 0 80 80" version="1.1" xmlns="http://www.w3.org/2000/svg" xmlns:xlink="http://www.w3.org/1999/xlink">
    <g id="Product-Design-Icon" stroke="none" stroke-width="1" fill="none" fill-rule="evenodd">
        <circle id="Background" fill="#f5f5f5" cx="40" cy="40" r="40"></circle>
        <g id="Icon" transform="translate(18, 18)">
            <path d="M5,24 L39,24 C41.209139,24 43,25.790861 43,28 L43,40 C43,42.209139 41.209139,44 39,44 L5,44 C2.790861,44 1,42.209139 1,40 L1,28 C1,25.790861 2.790861,24 5,24 Z" id="Base" stroke="#2c3e50" stroke-width="2" stroke-linecap="round" stroke-linejoin="round"></path>
            <path d="M10,24 L10,14 C10,7.372583 15.372583,2 22,2 C28.627417,2 34,7.372583 34,14 L34,24" id="Handle" stroke="#2c3e50" stroke-width="2" stroke-linecap="round" stroke-linejoin="round"></path>
            <circle id="Button" fill="#3498db" cx="22" cy="34" r="4"></circle>
        </g>
    </g>
</svg>