<?xml version="1.0" encoding="UTF-8" standalone="no"?>
<svg width="400px" height="400px" viewBox="0 0 400 400" version="1.1" xmlns="http://www.w3.org/2000/svg" xmlns:xlink="http://www.w3.org/1999/xlink">
    <g id="Person" stroke="none" stroke-width="1" fill="none" fill-rule="evenodd">
        <!-- Background Circle -->
        <circle id="Background" fill="#f5f5f5" cx="200" cy="200" r="200"></circle>
        
        <!-- Stylized Person -->
        <g id="Person" transform="translate(100, 70)">
            <!-- Head -->
            <circle id="Head" fill="#2c3e50" cx="100" cy="80" r="70"></circle>
            
            <!-- Face -->
            <circle id="Face" fill="#ecf0f1" cx="100" cy="80" r="60"></circle>
            
            <!-- Eyes -->
            <ellipse id="Left-Eye" fill="#2c3e50" cx="80" cy="70" rx="8" ry="6"></ellipse>
            <ellipse id="Right-Eye" fill="#2c3e50" cx="120" cy="70" rx="8" ry="6"></ellipse>
            
            <!-- Eyebrows -->
            <path d="M70,60 C75,55 85,55 90,60" id="Left-Eyebrow" stroke="#2c3e50" stroke-width="3" stroke-linecap="round"></path>
            <path d="M110,60 C115,55 125,55 130,60" id="Right-Eyebrow" stroke="#2c3e50" stroke-width="3" stroke-linecap="round"></path>
            
            <!-- Nose -->
            <path d="M100,75 C103,85 105,90 100,95" id="Nose" stroke="#2c3e50" stroke-width="2" stroke-linecap="round"></path>
            
            <!-- Mouth -->
            <path d="M80,105 C90,115 110,115 120,105" id="Mouth" stroke="#2c3e50" stroke-width="2" stroke-linecap="round"></path>
            
            <!-- Hair -->
            <path d="M40,70 C40,40 70,10 100,10 C130,10 160,40 160,70 C160,75 159,80 157,85 C155,70 150,55 100,55 C50,55 45,70 43,85 C41,80 40,75 40,70 Z" id="Hair" fill="#3498db"></path>
            
            <!-- Shoulders/Body -->
            <path d="M35,150 L70,120 L130,120 L165,150 C185,170 185,190 185,210 L15,210 C15,190 15,170 35,150 Z" id="Body" fill="#3498db"></path>
            
            <!-- Shirt Collar -->
            <path d="M85,120 L100,140 L115,120" id="Collar" stroke="#ecf0f1" stroke-width="6" stroke-linecap="round"></path>
            
            <!-- Glasses -->
            <rect id="Glasses-Bridge" fill="#34495e" x="92" y="67" width="16" height="3" rx="1.5"></rect>
            <rect id="Left-Glass" stroke="#34495e" stroke-width="2" x="55" y="60" width="35" height="20" rx="10"></rect>
            <rect id="Right-Glass" stroke="#34495e" stroke-width="2" x="110" y="60" width="35" height="20" rx="10"></rect>
            <path d="M55,70 L45,65" id="Left-Temple" stroke="#34495e" stroke-width="2"></path>
            <path d="M145,70 L155,65" id="Right-Temple" stroke="#34495e" stroke-width="2"></path>
        </g>
    </g>
</svg>